<?xml version="1.0" encoding="UTF-8" standalone="no"?>
<!DOCTYPE svg PUBLIC "-//W3C//DTD SVG 1.1//EN" "http://www.w3.org/Graphics/SVG/1.1/DTD/svg11.dtd">
<svg width="100%" height="100%" viewBox="0 0 51 21" version="1.1" xmlns="http://www.w3.org/2000/svg" xmlns:xlink="http://www.w3.org/1999/xlink" xml:space="preserve" xmlns:serif="http://www.serif.com/" style="fill-rule:evenodd;clip-rule:evenodd;stroke-linejoin:round;stroke-miterlimit:2;">
    <g transform="matrix(0.331089,0,0,0.331089,0.324457,0.0333034)">
        <path d="M151.946,7.417C151.753,6.102 151.137,4.887 150.191,3.959C149.245,3.031 148.023,2.44 146.711,2.279C135.117,0.873 104.491,-1.974 90.443,5.052C89.469,5.547 88.543,6.132 87.677,6.799L82.257,10.695C80.765,11.675 79.019,12.192 77.237,12.182L74.893,12.182C73.111,12.191 71.365,11.674 69.872,10.695L64.453,6.799C63.588,6.13 62.662,5.545 61.687,5.052C47.639,-1.974 17.013,0.873 5.426,2.279C4.113,2.439 2.889,3.028 1.942,3.957C0.995,4.885 0.377,6.101 0.184,7.417L0.125,7.818C-0.015,8.882 0.153,9.963 0.608,10.933C1.063,11.904 1.786,12.722 2.691,13.29C2.831,13.38 2.964,13.484 3.097,13.581C4.025,14.327 4.779,15.268 5.307,16.337C5.836,17.407 6.127,18.58 6.158,19.774C8.11,64.082 43.579,64.505 56.438,54.72C63.617,49.27 69.747,37.5 70.952,26.518L71.129,26.102L71.129,26.035C71.551,25.082 72.238,24.272 73.107,23.704C73.976,23.136 74.991,22.834 76.028,22.834C77.065,22.834 78.08,23.136 78.949,23.704C79.818,24.272 80.505,25.082 80.927,26.035L80.927,26.102L81.104,26.518C82.302,37.5 88.439,49.27 95.618,54.72C108.499,64.476 143.96,64.052 145.898,19.774C145.932,18.602 146.213,17.45 146.723,16.395C147.233,15.34 147.96,14.406 148.855,13.655L149.232,13.372C150.198,12.739 150.966,11.843 151.446,10.789C151.926,9.735 152.099,8.566 151.946,7.417ZM65.591,24.837C64.186,36.504 58.937,53.702 40.252,53.523C21.072,53.337 12.739,35.753 11.615,22.6C11.346,18.92 12.505,15.279 14.849,12.441C17.193,9.603 20.539,7.789 24.185,7.379C32.185,6.346 44.053,5.937 55.609,9.669C58.774,10.626 61.505,12.667 63.328,15.438C65.152,18.209 65.953,21.535 65.591,24.837ZM140.5,22.607C139.376,35.76 131.043,53.345 111.863,53.531C93.164,53.709 87.929,36.511 86.524,24.845C86.163,21.544 86.962,18.221 88.783,15.451C90.603,12.68 93.33,10.638 96.491,9.677C108.048,5.959 119.915,6.353 127.915,7.387C131.563,7.793 134.912,9.604 137.258,12.441C139.605,15.278 140.767,18.919 140.5,22.6L140.5,22.607Z" style="fill:rgb(17,17,17);fill-rule:nonzero;"/>
    </g>
</svg>
