<svg width="39" height="29" viewBox="0 0 39 29" fill="none" xmlns="http://www.w3.org/2000/svg">
<path d="M6.02832 22.1193C9.47925 25.5461 14.2273 27.6576 19.47 27.6576C24.7128 27.6576 29.4608 25.54 32.9118 22.1193" stroke="#090C12" stroke-width="1.05" stroke-miterlimit="10" stroke-linecap="round"/>
<path d="M2.76476 0.701416C4.78473 0.701416 6.78492 1.10231 8.65112 1.8812C10.5173 2.66009 12.213 3.80172 13.6413 5.24092C15.0697 6.68012 16.2027 8.38871 16.9757 10.2691C17.7487 12.1495 18.1466 14.1649 18.1466 16.2003L18.1466 17.0675C18.1466 17.5846 17.9427 18.0805 17.5798 18.4461C17.217 18.8118 16.7248 19.0172 16.2116 19.0172C12.1321 19.0172 8.2197 17.3843 5.33506 14.4777C2.45041 11.5711 0.829834 7.62888 0.829834 3.51833L0.829834 2.65107C0.829834 2.13399 1.03369 1.63809 1.39656 1.27246C1.75943 0.906826 2.25159 0.701416 2.76476 0.701416Z" fill="black"/>
<path d="M11.0471 7.03404C11.3853 6.6298 10.8639 5.62639 9.88263 4.79288C8.90132 3.95936 7.83165 3.61137 7.49346 4.01561C7.15526 4.41986 7.67662 5.42326 8.65793 6.25677C9.63924 7.09029 10.7089 7.43828 11.0471 7.03404Z" fill="white"/>
<path d="M36.1676 0.701416C34.1476 0.701416 32.1475 1.10231 30.2813 1.8812C28.415 2.66009 26.7194 3.80172 25.291 5.24092C23.8627 6.68012 22.7297 8.38871 21.9567 10.2691C21.1837 12.1495 20.7858 14.1649 20.7858 16.2003L20.7858 17.0675C20.7858 17.5846 20.9897 18.0805 21.3525 18.4461C21.7154 18.8118 22.2076 19.0172 22.7208 19.0172C26.8003 19.0172 30.7127 17.3843 33.5973 14.4777C36.482 11.5711 38.1025 7.62888 38.1025 3.51833L38.1025 2.65107C38.1025 2.13399 37.8987 1.63809 37.5358 1.27246C37.1729 0.906826 36.6808 0.701416 36.1676 0.701416Z" fill="black"/>
<path d="M27.885 7.03404C27.5468 6.6298 28.0682 5.62639 29.0495 4.79288C30.0308 3.95936 31.1005 3.61137 31.4387 4.01561C31.7769 4.41986 31.2555 5.42326 30.2742 6.25677C29.2929 7.09029 28.2232 7.43828 27.885 7.03404Z" fill="white"/>
</svg>
