<svg width="23" height="16" viewBox="0 0 23 16" fill="none" xmlns="http://www.w3.org/2000/svg">
<path d="M11.3537 7.96486L6.41225 7.91185C5.8309 7.90562 5.52141 8.61377 5.91924 9.05062C8.83678 12.2465 13.7839 12.2996 16.7693 9.16701C17.1764 8.7388 16.8822 8.02417 16.3008 8.01793L11.3593 7.96492L11.3537 7.96486Z" fill="#111111" stroke="#111111" stroke-width="1.05" stroke-miterlimit="10"/>
<path d="M0.0622559 2.07254C0.0622559 3.20204 0.977912 4.11768 2.10741 4.11768C3.23691 4.11768 4.15257 3.20204 4.15257 2.07254C4.15257 0.943045 3.23691 0.0274048 2.10741 0.0274048C0.977912 0.0274048 0.0622559 0.943045 0.0622559 2.07254Z" fill="#090C12"/>
<path d="M18.1672 2.0723C18.1672 3.2018 19.0829 4.11744 20.2124 4.11744C21.3419 4.11744 22.2575 3.2018 22.2575 2.0723C22.2575 0.942801 21.3419 0.0271606 20.2124 0.0271606C19.0829 0.0271606 18.1672 0.942801 18.1672 2.0723Z" fill="#090C12"/>
<g clip-path="url(#clip0_3839_36623)">
<path d="M13.632 12.9877C13.632 13.3698 13.3179 13.6806 12.9318 13.6806C12.5457 13.6806 12.2316 13.3698 12.2316 12.9877V11.7159C12.2316 11.3337 12.5457 11.0229 12.9318 11.0229C13.3179 11.0229 13.632 11.3337 13.632 11.7159V12.9877Z" fill="#65BAEE"/>
<path d="M15.7471 12.6084C15.7471 12.9905 15.433 13.3013 15.0469 13.3013C14.6608 13.3013 14.3467 12.9905 14.3467 12.6084V11.3366C14.3467 10.9545 14.6608 11.5276 15.0469 11.5276L14.5743 11.0258C14.9605 11.0258 15.7471 11.6731 15.7471 12.0552V12.6084Z" fill="#65BAEE"/>
<path d="M14.7732 14.4306C14.7732 14.8583 14.4216 15.2062 13.9894 15.2062C13.5571 15.2062 13.2056 14.8583 13.2056 14.4306V11.3337C13.2056 10.906 13.5571 10.5581 13.9894 10.5581C14.4216 10.5581 14.7732 10.906 14.7732 11.3337V14.4306Z" fill="#65BAEE"/>
<path d="M15.7471 12.0524C15.7471 10.3129 14.9605 10.1504 13.9029 10.4726C12.975 10.7521 12.2316 11.023 12.2316 11.7159C12.2316 12.6769 13.0211 12.483 13.9894 12.483C14.9576 12.483 15.7471 13.0134 15.7471 12.0524Z" fill="#65BAEE"/>
</g>
<defs>
<clipPath id="clip0_3839_36623">
<rect width="3.51557" height="4.86771" fill="white" transform="translate(12.2316 10.3385)"/>
</clipPath>
</defs>
</svg>
