<?xml version="1.0" encoding="UTF-8" standalone="no"?>
<!DOCTYPE svg PUBLIC "-//W3C//DTD SVG 1.1//EN" "http://www.w3.org/Graphics/SVG/1.1/DTD/svg11.dtd">
<svg width="100%" height="100%" viewBox="0 0 52 39" version="1.1" xmlns="http://www.w3.org/2000/svg" xmlns:xlink="http://www.w3.org/1999/xlink" xml:space="preserve" xmlns:serif="http://www.serif.com/" style="fill-rule:evenodd;clip-rule:evenodd;stroke-linecap:round;stroke-miterlimit:10;">
    <g transform="matrix(0.422154,0,0,0.422154,-2.7357,-1.3407)">
        <path d="M126.806,13.107C126.806,13.107 123.382,2.259 106.295,9.637C98.392,13.06 83.82,16.365 69.818,17.79C69.818,17.79 48.236,10.636 36.087,28.94C33.222,33.203 36.359,42.387 37.047,46.646L32.794,51.133C33.104,54.446 33.993,57.679 35.42,60.685C31.685,91.082 69.403,83.792 69.403,83.792C71.433,86.713 75.155,89.171 81.398,90.177C99.68,93.133 99.725,79.064 99.725,79.064C101.488,77.999 102.991,76.552 104.124,74.83C105.256,73.109 105.989,71.156 106.269,69.115C106.476,67.302 106.392,65.469 106.019,63.683C110.85,61.363 114.518,57.484 115.142,52.29C115.749,48.357 114.885,44.338 112.716,41.001C110.547,37.664 107.225,35.243 103.384,34.201C107.763,33.075 112.636,31.718 117.27,30.057C131.833,24.93 126.806,13.107 126.806,13.107Z" style="fill:rgb(101,186,238);fill-rule:nonzero;"/>
    </g>
    <g transform="matrix(0.422154,0,0,0.422154,-2.7357,-1.3407)">
        <path d="M106.036,63.68C106.389,65.451 106.464,67.265 106.259,69.059C105.982,71.084 105.258,73.021 104.142,74.733C103.025,76.444 101.543,77.887 99.802,78.957C99.802,78.957 99.756,93.025 81.475,90.069C75.232,89.063 71.417,86.621 69.479,83.684C69.479,83.684 31.762,90.974 35.497,60.577C34.07,57.571 33.181,54.339 32.871,51.026" style="fill:rgb(101,186,238);fill-rule:nonzero;"/>
    </g>
    <g transform="matrix(0.422154,0,0,0.422154,-2.7357,-1.3407)">
        <path d="M106.036,63.68C106.389,65.451 106.464,67.265 106.259,69.059C105.981,71.084 105.258,73.021 104.142,74.733C103.025,76.444 101.543,77.887 99.802,78.957C99.802,78.957 99.756,93.025 81.475,90.069C75.232,89.063 71.417,86.621 69.479,83.684C69.479,83.684 31.762,90.974 35.497,60.577C34.07,57.571 33.181,54.339 32.871,51.026" style="fill:none;fill-rule:nonzero;stroke:rgb(17,17,17);stroke-width:2.9px;"/>
    </g>
    <g transform="matrix(0.422154,0,0,0.422154,-2.7357,-1.3407)">
        <path d="M69.817,17.79C83.819,16.365 98.391,13.06 106.293,9.637C123.372,2.204 126.805,13.107 126.805,13.107C126.805,13.107 131.832,24.93 117.266,30.039C108.279,33.219 98.156,35.368 92.833,36.76" style="fill:rgb(101,186,238);fill-rule:nonzero;"/>
    </g>
    <g transform="matrix(0.422154,0,0,0.422154,-2.7357,-1.3407)">
        <path d="M69.817,17.79C83.819,16.365 98.391,13.06 106.293,9.637C123.372,2.204 126.805,13.107 126.805,13.107C126.805,13.107 131.832,24.93 117.266,30.039C108.279,33.219 98.156,35.368 92.833,36.76" style="fill:none;fill-rule:nonzero;stroke:rgb(17,17,17);stroke-width:2.9px;"/>
    </g>
    <g transform="matrix(0.422154,0,0,0.422154,-2.7357,-1.3407)">
        <path d="M106.269,69.115C104.647,83.894 77.487,88.319 71.836,75.095C69.937,70.632 71.104,66.093 73.529,62.053C73.529,62.053 76.107,57.19 80.125,56.541" style="fill:none;fill-rule:nonzero;stroke:rgb(17,17,17);stroke-width:2.9px;"/>
    </g>
    <g transform="matrix(0.422154,0,0,0.422154,-2.7357,-1.3407)">
        <path d="M103.356,34.148C107.195,35.194 110.516,37.615 112.687,40.949C114.858,44.284 115.729,48.3 115.132,52.235C113.507,66.995 86.35,71.439 80.696,58.197C79.531,55.385 79.436,52.244 80.429,49.366" style="fill:none;fill-rule:nonzero;stroke:rgb(17,17,17);stroke-width:2.9px;"/>
    </g>
    <g transform="matrix(0.422154,0,0,0.422154,-2.7357,-1.3407)">
        <path d="M99.803,78.957C99.803,78.957 99.757,93.025 81.475,90.069C63.194,87.113 66.444,71.596 70.96,68.966" style="fill:none;fill-rule:nonzero;stroke:rgb(17,17,17);stroke-width:2.9px;"/>
    </g>
    <g transform="matrix(0.422154,0,0,0.422154,-2.7357,-1.3407)">
        <path d="M69.48,83.684C69.48,83.684 31.762,90.974 35.497,60.577" style="fill:none;fill-rule:nonzero;stroke:rgb(17,17,17);stroke-width:2.9px;"/>
    </g>
    <g transform="matrix(0.422154,0,0,0.422154,-2.7357,-1.3407)">
        <path d="M85.629,42.503C88.462,42.2 91.305,42.984 93.584,44.695" style="fill:none;fill-rule:nonzero;stroke:rgb(17,17,17);stroke-width:2.9px;"/>
    </g>
    <g transform="matrix(0.422154,0,0,0.422154,-2.7357,-1.3407)">
        <path d="M10.591,74.861C11.03,83.334 18.251,89.848 26.719,89.409C35.188,88.97 41.696,81.745 41.257,73.272L39.181,33.202C38.742,24.729 31.521,18.216 23.053,18.655C14.585,19.093 8.076,26.318 8.515,34.791L10.591,74.861Z" style="fill:rgb(101,186,238);fill-rule:nonzero;stroke:rgb(17,17,17);stroke-width:2.9px;"/>
    </g>
    <g transform="matrix(0.422154,0,0,0.422154,-2.7357,-1.3407)">
        <path d="M47.029,38.098C48.797,39.876 51.116,41.001 53.606,41.289C56.097,41.577 58.611,41.011 60.738,39.684C61.989,42.824 63.569,45.824 65.452,48.632C70.484,56.255 85.421,50.27 84.379,40.881C84.024,36.392 82.629,32.048 80.305,28.192C77.98,24.337 74.79,21.075 70.986,18.666C63.085,13.634 50.583,17.991 50.583,17.991C50.583,17.991 41.883,20.593 37.683,27.409" style="fill:none;fill-rule:nonzero;stroke:rgb(17,17,17);stroke-width:2.9px;"/>
    </g>
</svg>
