<svg width="22" height="16" viewBox="0 0 22 16" fill="none" xmlns="http://www.w3.org/2000/svg">
<path d="M0.473633 1.95176C0.473633 3.02962 1.34741 3.9034 2.42527 3.9034C3.50313 3.9034 4.37691 3.02962 4.37691 1.95176C4.37691 0.873901 3.50313 0.00012207 2.42527 0.00012207C1.34741 0.00012207 0.473633 0.873901 0.473633 1.95176Z" fill="#090C12"/>
<path d="M17.7515 1.95176C17.7515 3.02962 18.6252 3.9034 19.7031 3.9034C20.781 3.9034 21.6547 3.02962 21.6547 1.95176C21.6547 0.873901 20.781 0.00012207 19.7031 0.00012207C18.6252 0.00012207 17.7515 0.873901 17.7515 1.95176Z" fill="#090C12"/>
<path d="M0.646484 11.1863C3.32035 13.8414 6.99925 15.4775 11.0615 15.4775C15.1237 15.4775 18.8026 13.8368 21.4764 11.1863" stroke="#090C12" stroke-miterlimit="10" stroke-linecap="round"/>
</svg>
