<svg width="23" height="17" viewBox="0 0 23 17" fill="none" xmlns="http://www.w3.org/2000/svg">
<path d="M6.05948 13.5877C5.2544 14.4478 5.82544 15.9353 6.95817 15.9353H15.346C16.4787 15.9353 17.0404 14.4579 16.2447 13.5877C13.4269 10.562 8.87726 10.562 6.06884 13.5877H6.05948Z" fill="#111111" stroke="#111111" stroke-width="1.05" stroke-miterlimit="10"/>
<path d="M0.09375 2.91498C0.09375 4.04448 1.00941 4.96012 2.13891 4.96012C3.2684 4.96012 4.18406 4.04448 4.18406 2.91498C4.18406 1.78548 3.2684 0.869843 2.13891 0.869843C1.00941 0.869843 0.09375 1.78548 0.09375 2.91498Z" fill="#090C12"/>
<path d="M18.1987 2.91477C18.1987 4.04427 19.1144 4.95991 20.2439 4.95991C21.3734 4.95991 22.289 4.04427 22.289 2.91477C22.289 1.78527 21.3734 0.869629 20.2439 0.869629C19.1144 0.869629 18.1987 1.78527 18.1987 2.91477Z" fill="#090C12"/>
</svg>
