<svg width="47" height="24" viewBox="0 0 47 24" fill="none" xmlns="http://www.w3.org/2000/svg">
<path d="M31.2626 8.85412C34.2496 8.85412 36.6711 8.68619 36.6711 5.69912C36.6711 2.71205 34.2496 0.290558 31.2626 0.290558C28.2755 0.290558 25.854 2.71205 25.854 5.69912C25.854 8.68619 28.2755 8.85412 31.2626 8.85412Z" fill="black"/>
<path d="M15.037 8.85412C18.024 8.85412 20.4455 8.68619 20.4455 5.69912C20.4455 2.71205 18.024 0.290558 15.037 0.290558C12.0499 0.290558 9.62842 2.71205 9.62842 5.69912C9.62842 8.68619 12.0499 8.85412 15.037 8.85412Z" fill="black"/>
<path d="M23.1498 12.6626C24.2103 12.6626 25.07 12.603 25.07 11.5425C25.07 10.4819 24.2103 8.8541 23.1498 8.8541C22.0892 8.8541 21.2295 10.4819 21.2295 11.5425C21.2295 12.603 22.0892 12.6626 23.1498 12.6626Z" fill="black"/>
<path d="M20.5656 21.2593C20.5656 21.5493 20.8007 21.7843 21.0906 21.7843C21.3806 21.7843 21.6156 21.5493 21.6156 21.2593H20.5656ZM1 14.475H0.475V15.525H1L1 14.475ZM17.2579 22.8208C16.9679 22.8208 16.7329 23.0558 16.7329 23.3458C16.7329 23.6357 16.9679 23.8708 17.2579 23.8708V22.8208ZM20.0941 15.525C20.3841 15.525 20.6191 15.2899 20.6191 15C20.6191 14.7101 20.3841 14.475 20.0941 14.475V15.525ZM19.6226 21.2593V15.9965H18.5726V21.2593H19.6226ZM20.5656 15.9965V21.2593H21.6156V15.9965H20.5656ZM18.5726 21.2593V21.506H19.6226V21.2593H18.5726ZM15.9431 21.506V17.6523H14.8931V21.506H15.9431ZM12.7659 14.475H1L1 15.525H12.7659V14.475ZM17.2579 22.8208C16.5318 22.8208 15.9431 22.2321 15.9431 21.506H14.8931C14.8931 22.812 15.9519 23.8708 17.2579 23.8708V22.8208ZM18.5726 21.506C18.5726 22.2321 17.984 22.8208 17.2579 22.8208V23.8708C18.5639 23.8708 19.6226 22.812 19.6226 21.506H18.5726ZM20.0941 15.525C20.3545 15.525 20.5656 15.7361 20.5656 15.9965H21.6156C21.6156 15.1562 20.9344 14.475 20.0941 14.475V15.525ZM15.9431 17.6523C15.9431 15.8975 14.5206 14.475 12.7659 14.475V15.525C13.9407 15.525 14.8931 16.4774 14.8931 17.6523H15.9431ZM19.6226 15.9965C19.6226 15.7361 19.8337 15.525 20.0941 15.525V14.475C19.2538 14.475 18.5726 15.1562 18.5726 15.9965H19.6226Z" fill="black"/>
<path d="M25.3973 21.2593C25.3973 21.5493 25.1623 21.7843 24.8723 21.7843C24.5824 21.7843 24.3473 21.5493 24.3473 21.2593H25.3973ZM46 14.475H46.525V15.525H46L46 14.475ZM28.7051 22.8208C28.9951 22.8208 29.2301 23.0558 29.2301 23.3458C29.2301 23.6357 28.9951 23.8708 28.7051 23.8708V22.8208ZM25.8688 15.525C25.5789 15.525 25.3438 15.2899 25.3438 15C25.3438 14.7101 25.5789 14.475 25.8688 14.475V15.525ZM33.1971 15V14.475V15ZM26.3404 21.2593V15.9965H27.3904V21.2593H26.3404ZM25.3973 15.9965V21.2593H24.3473V15.9965H25.3973ZM27.3904 21.2593V21.506H26.3404V21.2593H27.3904ZM30.0198 21.506V17.6523H31.0698V21.506H30.0198ZM33.1971 14.475H46L46 15.525H33.1971V14.475ZM28.7051 22.8208C29.4312 22.8208 30.0198 22.2321 30.0198 21.506H31.0698C31.0698 22.812 30.0111 23.8708 28.7051 23.8708V22.8208ZM27.3904 21.506C27.3904 22.2321 27.979 22.8208 28.7051 22.8208V23.8708C27.3991 23.8708 26.3404 22.812 26.3404 21.506H27.3904ZM25.8688 15.525C25.6084 15.525 25.3973 15.7361 25.3973 15.9965H24.3473C24.3473 15.1562 25.0285 14.475 25.8688 14.475V15.525ZM30.0198 17.6523C30.0198 15.8975 31.4423 14.475 33.1971 14.475V15.525C32.0222 15.525 31.0698 16.4774 31.0698 17.6523H30.0198ZM26.3404 15.9965C26.3404 15.7361 26.1293 15.525 25.8688 15.525V14.475C26.7092 14.475 27.3904 15.1562 27.3904 15.9965H26.3404Z" fill="black"/>
<path d="M21.0906 21.4198V21.4549C21.0906 22.4992 21.9372 23.3457 22.9815 23.3457V23.3457C24.0258 23.3457 24.8723 22.4992 24.8723 21.4549V21.4198" stroke="black" stroke-width="1.05" stroke-miterlimit="10" stroke-linecap="round"/>
</svg>
