<?xml version="1.0" encoding="UTF-8" standalone="no"?>
<!DOCTYPE svg PUBLIC "-//W3C//DTD SVG 1.1//EN" "http://www.w3.org/Graphics/SVG/1.1/DTD/svg11.dtd">
<svg width="100%" height="100%" viewBox="0 0 186 186" version="1.1" xmlns="http://www.w3.org/2000/svg" xmlns:xlink="http://www.w3.org/1999/xlink" xml:space="preserve" xmlns:serif="http://www.serif.com/" style="fill-rule:evenodd;clip-rule:evenodd;">
    <g transform="matrix(0.988697,0,0,0.988697,1.0507,1.05119)">
        <path d="M184.751,93C184.751,143.672 143.673,184.75 93.001,184.75C42.328,184.75 1.25,143.672 1.25,93C1.25,42.328 42.328,1.25 93.001,1.25C143.673,1.25 184.751,42.328 184.751,93Z" style="fill:rgb(190,139,255);fill-rule:nonzero;stroke:black;stroke-width:3.9px;"/>
    </g>
    <g transform="matrix(0.988697,0,0,0.988697,1.0507,1.05119)">
        <path d="M93.754,81.222L75.481,81.026C73.331,81.003 72.187,83.622 73.658,85.237C84.447,97.055 102.74,97.252 113.78,85.668C115.285,84.084 114.197,81.442 112.047,81.419L93.775,81.223L93.754,81.222Z" style="fill:rgb(17,17,17);fill-rule:nonzero;stroke:rgb(17,17,17);stroke-width:2.5px;stroke-miterlimit:10;"/>
    </g>
    <g transform="matrix(0.988697,0,0,0.988697,1.0507,1.05119)">
        <path d="M52,59.433C52,63.61 55.386,66.996 59.563,66.996C63.739,66.996 67.125,63.61 67.125,59.433C67.125,55.256 63.739,51.871 59.563,51.871C55.386,51.871 52,55.256 52,59.433Z" style="fill:rgb(9,12,18);fill-rule:nonzero;"/>
    </g>
    <g transform="matrix(0.988697,0,0,0.988697,1.0507,1.05119)">
        <path d="M118.95,59.433C118.95,63.61 122.336,66.995 126.512,66.995C130.689,66.995 134.075,63.61 134.075,59.433C134.075,55.256 130.689,51.87 126.512,51.87C122.336,51.87 118.95,55.256 118.95,59.433Z" style="fill:rgb(9,12,18);fill-rule:nonzero;"/>
    </g>
    <g>
        <g transform="matrix(0.988697,0,0,0.988697,1.0507,1.05119)">
            <path d="M102.179,99.796C102.179,101.209 101.017,102.359 99.589,102.359C98.162,102.359 97,101.209 97,99.796L97,95.093C97,93.68 98.162,92.531 99.589,92.531C101.017,92.531 102.179,93.68 102.179,95.093L102.179,99.796Z" style="fill:rgb(101,186,238);fill-rule:nonzero;"/>
        </g>
        <g transform="matrix(0.988697,0,0,0.988697,1.0507,1.05119)">
            <path d="M110,98.394C110,99.807 108.839,100.956 107.411,100.956C105.983,100.956 104.821,99.807 104.821,98.394L104.821,93.691C104.821,92.278 105.983,94.397 107.411,94.397L105.663,92.541C107.091,92.541 110,94.935 110,96.348L110,98.394Z" style="fill:rgb(101,186,238);fill-rule:nonzero;"/>
        </g>
        <g transform="matrix(0.988697,0,0,0.988697,1.0507,1.05119)">
            <path d="M106.398,105.132C106.398,106.714 105.098,108 103.5,108C101.902,108 100.602,106.714 100.602,105.132L100.602,93.68C100.602,92.098 101.902,90.812 103.5,90.812C105.098,90.812 106.398,92.098 106.398,93.68L106.398,105.132Z" style="fill:rgb(101,186,238);fill-rule:nonzero;"/>
        </g>
        <g transform="matrix(0.988697,0,0,0.988697,1.0507,1.05119)">
            <path d="M110,96.338C110,89.905 107.091,89.304 103.18,90.496C99.749,91.529 97,92.531 97,95.093C97,98.647 99.92,97.93 103.5,97.93C107.08,97.93 110,99.891 110,96.338Z" style="fill:rgb(101,186,238);fill-rule:nonzero;"/>
        </g>
    </g>
</svg>
