<svg width="24" height="21" viewBox="0 0 24 21" fill="none" xmlns="http://www.w3.org/2000/svg">
<path d="M1.63086 10.776C1.63086 11.8538 2.50464 12.7276 3.58249 12.7276C4.66035 12.7276 5.53413 11.8538 5.53413 10.776C5.53413 9.69812 4.66035 8.82434 3.58249 8.82434C2.50464 8.82434 1.63086 9.69812 1.63086 10.776Z" fill="#090C12"/>
<path d="M18.9033 10.8213C18.9033 11.8991 19.7771 12.7729 20.855 12.7729C21.9328 12.7729 22.8066 11.8991 22.8066 10.8213C22.8066 9.74341 21.9328 8.86963 20.855 8.86963C19.7771 8.86963 18.9033 9.74341 18.9033 10.8213Z" fill="#090C12"/>
<path d="M22.6327 20.349C19.9588 17.6938 16.2799 16.0577 12.2177 16.0577C8.15549 16.0577 4.4766 17.6985 1.80273 20.349" stroke="#090C12" stroke-miterlimit="10" stroke-linecap="round"/>
<path d="M0.975586 0.744019L8.40351 8.17193" stroke="#090C12" stroke-miterlimit="10" stroke-linecap="round"/>
<path d="M23.4601 0.744019L16.0322 8.17193" stroke="#090C12" stroke-miterlimit="10" stroke-linecap="round"/>
</svg>
