<svg width="23" height="16" viewBox="0 0 23 16" fill="none" xmlns="http://www.w3.org/2000/svg">
<path d="M0.865967 11.25C3.58733 13.9523 7.33159 15.6175 11.466 15.6175C15.6003 15.6175 19.3446 13.9476 22.066 11.25" stroke="#090C12" stroke-width="0.74" stroke-miterlimit="10" stroke-linecap="round"/>
<path d="M6.29081 1.42301C6.96952 2.16541 6.96952 3.36385 6.29081 4.10625L3.82806 6.80009L1.375 4.10625C0.696289 3.36385 0.696289 2.16541 1.375 1.42301C2.05371 0.680611 3.15904 0.680611 3.82806 1.42301C4.50677 0.680611 5.6121 0.680611 6.29081 1.42301Z" fill="#111111"/>
<path d="M21.1255 1.42301C21.8042 2.16541 21.8042 3.36385 21.1255 4.10625L18.6628 6.80009L16.2097 4.10625C15.531 3.36385 15.531 2.16541 16.2097 1.42301C16.8884 0.680611 17.9938 0.680611 18.6628 1.42301C19.3415 0.680611 20.4468 0.680611 21.1255 1.42301Z" fill="#111111"/>
</svg>
